<svg viewBox="0 0 24 24" fill="none" xmlns="http://www.w3.org/2000/svg">
<rect x="11" y="15" width="2" height="2" fill="currentcolor"></rect>
<rect x="16" y="13" width="2" height="2" fill="currentcolor"></rect>
<rect width="2" height="2" transform="matrix(-1 0 0 1 8 13)" fill="currentcolor"></rect>
<rect x="18" y="11" width="2" height="2" fill="currentcolor"></rect>
<rect width="2" height="2" transform="matrix(-1 0 0 1 6 11)" fill="currentcolor"></rect>
<rect x="20" y="5" width="2" height="6" fill="currentcolor"></rect>
<rect width="2" height="6" transform="matrix(-1 0 0 1 4 5)" fill="currentcolor"></rect>
<rect x="13" y="17" width="2" height="2" fill="currentcolor"></rect>
<rect width="2" height="2" transform="matrix(-1 0 0 1 11 17)" fill="currentcolor"></rect>
<rect x="18" y="15" width="2" height="4" fill="currentcolor"></rect>
<rect width="2" height="4" transform="matrix(-1 0 0 1 6 15)" fill="currentcolor"></rect>
<rect x="15" y="19" width="3" height="2" fill="currentcolor"></rect>
<rect width="3" height="2" transform="matrix(-1 0 0 1 9 19)" fill="currentcolor"></rect>
<rect x="17" y="3" width="3" height="2" fill="currentcolor"></rect>
<rect width="3" height="2" transform="matrix(-1 0 0 1 7 3)" fill="currentcolor"></rect>
<rect x="15" y="5" width="2" height="2" fill="currentcolor"></rect>
<rect width="2" height="2" transform="matrix(-1 0 0 1 9 5)" fill="currentcolor"></rect>
<rect x="13" y="7" width="2" height="2" fill="currentcolor"></rect>
<rect width="2" height="2" transform="matrix(-1 0 0 1 11 7)" fill="currentcolor"></rect>
<rect x="11" y="9" width="2" height="2" fill="currentcolor"></rect>
</svg>