<svg viewBox="0 0 24 24" fill="none" xmlns="http://www.w3.org/2000/svg">
<rect x="3" y="5" width="2" height="2" fill="currentColor"></rect>
<rect x="3" y="17" width="2" height="2" fill="currentColor"></rect>
<rect x="19" y="5" width="2" height="2" fill="currentColor"></rect>
<rect x="19" y="17" width="2" height="2" fill="currentColor"></rect>
<rect x="1" y="7" width="2" height="10" fill="currentColor"></rect>
<rect x="21" y="7" width="2" height="10" fill="currentColor"></rect>
<rect x="9" y="17" width="2" height="2" fill="currentColor"></rect>
<rect x="13" y="17" width="2" height="2" fill="currentColor"></rect>
<rect x="5" y="19" width="4" height="2" fill="currentColor"></rect>
<rect x="15" y="19" width="4" height="2" fill="currentColor"></rect>
<rect x="7" y="15" width="10" height="2" fill="currentColor"></rect>
<rect x="5" y="3" width="4" height="2" fill="currentColor"></rect>
<rect x="15" y="3" width="4" height="2" fill="currentColor"></rect>
<rect x="9" y="5" width="6" height="2" fill="currentColor"></rect>
<rect x="13" y="10" width="3" height="3" fill="currentColor"></rect>
<rect x="8" y="10" width="3" height="3" fill="currentColor"></rect>
</svg>